<svg xmlns="http://www.w3.org/2000/svg" xmlns:xlink="http://www.w3.org/1999/xlink" width="891.41498" height="273.10901" viewBox="0 0 891.41498 273.10901"><defs><style>.a{fill:none;}.b{clip-path:url(#a);}</style><clipPath id="a" transform="translate(-514.29266 -403.44562)"><rect class="a" width="1920" height="1080"/></clipPath></defs><title>LOGO LUIGI_LANDSCAPE_01</title><g class="b"><path d="M1012.65466,668.86862h-45.656v-256.839h45.656Zm-495.105.373h-3.257v-257.34h45.646v211.684h135.332v45.656h-177.721Zm888.158-.377h-45.656v-86.615h-47.155c-18.34,55.008-70.468,92.93-128.82691,92.93-74.91406,0-135.86206-60.948-135.86206-135.87195,0-74.914,60.948-135.86206,135.86206-135.86206v45.656a90.21115,90.21115,0,1,0,79.183,133.148h-38.9961v-45.656h135.795v-124.568h45.656Zm-484.64-102.776c0,64.111-41.04206,107.804-102.763,110.351v.115l-5.741-.115c-61.71-2.547-102.752-46.24-102.752-110.351v-154.191h42.838v154.191c0,56.804,44.842,64.132,62.785,64.768,17.953-.636,62.79505-7.964,62.79505-64.768v-154.191h42.838Z" transform="translate(-514.29266 -403.44562)"/></g></svg>